<?xml version="1.0"?>
<svg xmlns="http://www.w3.org/2000/svg" height="512px" viewBox="0 0 64 64" width="512px" class=""><g><path d="m26 48h30v8h-30z" data-original="#000000" class="active-path" data-old_color="#000000" fill="#FF008B"/><path d="m26 34h30v8h-30z" data-original="#000000" class="active-path" data-old_color="#000000" fill="#FF008B"/><path d="m60 12h-56v45a3 3 0 0 0 3 3h50a3 3 0 0 0 3-3zm-38 46h-16v-26h16zm36 0h-34v-12h34zm0-14h-34v-12h34zm0-14h-52v-16h52z" data-original="#000000" class="active-path" data-old_color="#000000" fill="#FF008B"/><path d="m8 16h48v12h-48z" data-original="#000000" class="active-path" data-old_color="#000000" fill="#FF008B"/><path d="m60 7a3 3 0 0 0 -3-3h-50a3 3 0 0 0 -3 3v3h56zm-52 1h-2v-2h2zm4 0h-2v-2h2zm4 0h-2v-2h2z" data-original="#000000" class="active-path" data-old_color="#000000" fill="#FF008B"/><path d="m8 34h12v22h-12z" data-original="#000000" class="active-path" data-old_color="#000000" fill="#FF008B"/></g> </svg>
