<svg height="512pt" viewBox="0 0 512 512" width="512pt" xmlns="http://www.w3.org/2000/svg"><path d="m416 96c0-47.128906-90.738281-85.332031-202.667969-85.332031-111.929687 0-202.664062 38.203125-202.664062 85.332031s90.734375 85.332031 202.664062 85.332031c111.929688 0 202.667969-38.203125 202.667969-85.332031zm0 0" fill="#607d8b"/><path d="m416 298.667969c-5.886719 0-10.667969 4.777343-10.667969 10.664062 0 35.308594-78.847656 74.667969-192 74.667969-113.152343 0-192-39.359375-192-74.667969 0-5.886719-4.777343-10.664062-10.664062-10.664062-5.890625 0-10.667969 4.777343-10.667969 10.664062v106.667969c0 53.824219 93.71875 96 213.332031 96 119.617188 0 213.335938-42.175781 213.335938-96v-106.667969c0-5.886719-4.78125-10.664062-10.667969-10.664062zm0 0" fill="#455a64"/><path d="m416 192c-5.886719 0-10.667969 4.777344-10.667969 10.667969 0 35.304687-78.847656 74.664062-192 74.664062-113.152343 0-192-39.359375-192-74.664062 0-5.890625-4.777343-10.667969-10.664062-10.667969-5.890625 0-10.667969 4.777344-10.667969 10.667969v106.664062c0 53.824219 93.71875 96 213.332031 96 119.617188 0 213.335938-42.175781 213.335938-96v-106.664062c0-5.890625-4.78125-10.667969-10.667969-10.667969zm0 0" fill="#607d8b"/><path d="m416 85.332031c-5.886719 0-10.667969 4.78125-10.667969 10.667969 0 35.308594-78.847656 74.667969-192 74.667969-113.152343 0-192-39.359375-192-74.667969 0-5.886719-4.777343-10.667969-10.664062-10.667969-5.890625 0-10.667969 4.78125-10.667969 10.667969v106.667969c0 53.824219 93.71875 96 213.332031 96 119.617188 0 213.335938-42.175781 213.335938-96v-106.667969c0-5.886719-4.78125-10.667969-10.667969-10.667969zm0 0" fill="#455a64"/><path d="m437.332031 362.667969c-1.960937 0-3.882812.105469-5.78125.277343-17.769531-26.667968-47.59375-42.945312-79.550781-42.945312-49.664062 0-90.644531 37.910156-95.53125 86.316406-24.53125 4.753906-43.136719 26.429688-43.136719 52.351563 0 29.394531 23.914063 53.332031 53.335938 53.332031h170.664062c41.175781 0 74.667969-33.492188 74.667969-74.667969 0-41.171875-33.492188-74.664062-74.667969-74.664062zm0 0" fill="#00bcd4"/><path d="m437.332031 512h-170.664062c-29.398438 0-53.335938-23.914062-53.335938-53.332031 0-25.941407 18.605469-47.574219 43.160157-52.351563 4.863281-48.429687 45.84375-86.316406 95.507812-86.316406 31.9375 0 61.78125 16.296875 79.550781 42.945312 1.898438-.171874 3.839844-.277343 5.78125-.277343 41.175781 0 74.667969 33.492187 74.667969 74.664062 0 41.175781-33.492188 74.667969-74.667969 74.667969zm-85.332031-170.667969c-41.171875 0-74.667969 33.496094-74.667969 74.667969 0 5.886719-4.777343 10.667969-10.664062 10.667969-17.644531 0-32 14.355469-32 32 0 17.640625 14.355469 32 32 32h170.664062c29.398438 0 53.335938-23.914063 53.335938-53.335938 0-29.417969-23.9375-53.332031-53.335938-53.332031-3.199219 0-6.3125.425781-9.363281.960938-4.503906.683593-8.9375-1.324219-11.15625-5.269532-13.292969-23.679687-38.144531-38.359375-64.8125-38.359375zm0 0"/><path d="m213.332031 192c-119.613281 0-213.332031-42.175781-213.332031-96s93.71875-96 213.332031-96c119.617188 0 213.335938 42.175781 213.335938 96s-93.71875 96-213.335938 96zm0-170.667969c-113.152343 0-192 39.359375-192 74.667969s78.847657 74.667969 192 74.667969c113.152344 0 192-39.359375 192-74.667969s-78.847656-74.667969-192-74.667969zm0 0"/><path d="m213.332031 298.667969c-119.613281 0-213.332031-42.175781-213.332031-96 0-5.890625 4.777344-10.667969 10.667969-10.667969 5.886719 0 10.664062 4.777344 10.664062 10.667969 0 35.304687 78.847657 74.664062 192 74.664062 113.152344 0 192-39.359375 192-74.664062 0-5.890625 4.78125-10.667969 10.667969-10.667969s10.667969 4.777344 10.667969 10.667969c0 53.824219-93.71875 96-213.335938 96zm0 0"/><path d="m210.476562 405.269531c-.023437 0-.042968 0-.066406 0-119.957031-.703125-210.410156-41.941406-210.410156-95.9375 0-5.886719 4.777344-10.664062 10.667969-10.664062 5.886719 0 10.664062 4.777343 10.664062 10.664062 0 35.5 76.035157 73.941407 189.207031 74.605469 5.886719.042969 10.644532 4.839844 10.601563 10.730469-.019531 5.867187-4.800781 10.601562-10.664063 10.601562zm0 0"/><path d="m192.980469 511.550781c-.148438 0-.296875 0-.445313 0-111.574218-4.671875-192.535156-44.863281-192.535156-95.550781v-320c0-5.886719 4.777344-10.667969 10.667969-10.667969 5.886719 0 10.664062 4.78125 10.664062 10.667969v320c0 32.234375 65.792969 69.78125 172.074219 74.21875 5.890625.257812 10.457031 5.226562 10.21875 11.113281-.234375 5.761719-4.96875 10.21875-10.644531 10.21875zm0 0"/><path d="m416 316.074219c-5.886719 0-10.667969-4.777344-10.667969-10.667969v-209.40625c0-5.886719 4.78125-10.667969 10.667969-10.667969s10.667969 4.78125 10.667969 10.667969v209.40625c0 5.910156-4.78125 10.667969-10.667969 10.667969zm0 0"/></svg>