<svg height="512pt" viewBox="-77 0 512 512.00349" width="512pt" xmlns="http://www.w3.org/2000/svg"><path d="m349.867188 477.871094h-341.332032v-469.335938h264.535156l76.796876 76.800782zm0 0" fill="#e2e4cc"/><path d="m273.070312 8.535156v76.800782h76.796876zm0 0" fill="#d0ccaa"/><path d="m8.535156 349.871094h341.332032v153.597656h-341.332032zm0 0" fill="#ef0020"/><g fill="#4d007e"><path d="m349.867188 512.003906h-341.332032c-4.710937 0-8.535156-3.824218-8.535156-8.535156v-494.933594c0-4.707031 3.824219-8.53124975 8.535156-8.53124975h264.535156c2.257813 0 4.433594.89453175 6.03125 2.49999975l76.800782 76.800782c1.601562 1.601562 2.5 3.769531 2.5 6.03125v418.132812c0 4.710938-3.824219 8.535156-8.535156 8.535156zm-332.796876-17.066406h324.265626v-406.066406l-71.800782-71.800782h-252.464844zm0 0"/><path d="m349.867188 93.871094h-76.796876c-4.710937 0-8.535156-3.824219-8.535156-8.535156v-76.800782c0-3.445312 2.082032-6.558594 5.265625-7.882812 3.191407-1.324219 6.851563-.5976565 9.300781 1.851562l76.800782 76.800782c2.441406 2.441406 3.171875 6.109374 1.851562 9.300781-1.324218 3.183593-4.4375 5.265625-7.886718 5.265625zm-68.265626-17.066406h47.667969l-47.667969-47.667969zm0 0"/><path d="m349.867188 512.003906h-341.332032c-4.710937 0-8.535156-3.824218-8.535156-8.535156v-153.597656c0-4.710938 3.824219-8.535156 8.535156-8.535156h341.332032c4.710937 0 8.535156 3.824218 8.535156 8.535156v153.597656c0 4.710938-3.824219 8.535156-8.535156 8.535156zm-332.796876-17.066406h324.265626v-136.535156h-324.265626zm0 0"/><path d="m277.335938 477.871094h-29.867188c-4.710938 0-8.535156-3.824219-8.535156-8.535156 0-4.710938 3.824218-8.53125 8.535156-8.53125h29.867188c7.054687 0 12.800781-5.742188 12.800781-12.800782s-5.746094-12.800781-12.800781-12.800781h-8.535157c-16.46875 0-29.867187-13.398437-29.867187-29.867187s13.398437-29.867188 29.867187-29.867188h29.867188c4.710937 0 8.535156 3.824219 8.535156 8.535156 0 4.710938-3.824219 8.53125-8.535156 8.53125h-29.867188c-7.054687 0-12.800781 5.746094-12.800781 12.800782 0 7.058593 5.746094 12.800781 12.800781 12.800781h8.535157c16.46875 0 29.867187 13.398437 29.867187 29.867187s-13.398437 29.867188-29.867187 29.867188zm0 0"/><path d="m110.933594 477.871094h-34.054688c-14.15625 0-25.675781-11.511719-25.675781-25.675782v-51.046874c0-14.160157 11.519531-25.679688 25.675781-25.679688h34.054688c4.710937 0 8.535156 3.824219 8.535156 8.535156 0 4.710938-3.824219 8.53125-8.535156 8.53125h-34.054688c-4.746094 0-8.609375 3.867188-8.609375 8.613282v51.046874c0 4.742188 3.863281 8.609376 8.609375 8.609376h34.054688c4.710937 0 8.535156 3.820312 8.535156 8.53125 0 4.710937-3.824219 8.535156-8.535156 8.535156zm0 0"/><path d="m183.46875 477.871094h-29.867188c-4.710937 0-8.53125-3.824219-8.53125-8.535156 0-4.710938 3.820313-8.53125 8.53125-8.53125h29.867188c7.058594 0 12.800781-5.742188 12.800781-12.800782s-5.742187-12.800781-12.800781-12.800781h-8.535156c-16.46875 0-29.863282-13.398437-29.863282-29.867187s13.394532-29.867188 29.863282-29.867188h29.867187c4.710938 0 8.535157 3.824219 8.535157 8.535156 0 4.710938-3.824219 8.53125-8.535157 8.53125h-29.867187c-7.054688 0-12.796875 5.746094-12.796875 12.800782 0 7.058593 5.742187 12.800781 12.796875 12.800781h8.535156c16.46875 0 29.867188 13.398437 29.867188 29.867187s-13.398438 29.867188-29.867188 29.867188zm0 0"/><path d="m128 315.738281c-18.824219 0-34.132812-15.308593-34.132812-34.136719v-51.199218c0-9.410156-7.652344-17.066406-17.066407-17.066406-4.710937 0-8.53125-3.820313-8.53125-8.53125 0-4.710938 3.820313-8.535157 8.53125-8.535157 9.414063 0 17.066407-7.652343 17.066407-17.066406v-51.199219c0-18.824218 15.308593-34.132812 34.132812-34.132812 4.710938 0 8.535156 3.820312 8.535156 8.53125 0 4.710937-3.824218 8.535156-8.535156 8.535156-9.410156 0-17.066406 7.652344-17.066406 17.066406v51.199219c0 10.179687-4.476563 19.34375-11.578125 25.601563 7.101562 6.261718 11.578125 15.417968 11.578125 25.597656v51.199218c0 9.414063 7.65625 17.070313 17.066406 17.070313 4.710938 0 8.535156 3.820313 8.535156 8.53125s-3.824218 8.535156-8.535156 8.535156zm0 0"/><path d="m230.402344 315.738281c-4.710938 0-8.535156-3.824219-8.535156-8.535156s3.824218-8.53125 8.535156-8.53125c9.410156 0 17.066406-7.65625 17.066406-17.070313v-51.199218c0-10.179688 4.480469-19.34375 11.578125-25.597656-7.097656-6.257813-11.578125-15.421876-11.578125-25.601563v-51.199219c0-9.414062-7.65625-17.066406-17.066406-17.066406-4.710938 0-8.535156-3.824219-8.535156-8.535156 0-4.710938 3.824218-8.53125 8.535156-8.53125 18.824218 0 34.132812 15.308594 34.132812 34.132812v51.199219c0 9.414063 7.65625 17.066406 17.066406 17.066406 4.710938 0 8.535157 3.824219 8.535157 8.535157 0 4.710937-3.824219 8.53125-8.535157 8.53125-9.410156 0-17.066406 7.65625-17.066406 17.066406v51.199218c0 18.828126-15.308594 34.136719-34.132812 34.136719zm0 0"/></g></svg>